<?xml version="1.0" encoding="UTF-8" standalone="no"?>
<svg
   xmlns:dc="http://purl.org/dc/elements/1.1/"
   xmlns:cc="http://creativecommons.org/ns#"
   xmlns:rdf="http://www.w3.org/1999/02/22-rdf-syntax-ns#"
   xmlns:svg="http://www.w3.org/2000/svg"
   xmlns="http://www.w3.org/2000/svg"
   xmlns:sodipodi="http://sodipodi.sourceforge.net/DTD/sodipodi-0.dtd"
   xmlns:inkscape="http://www.inkscape.org/namespaces/inkscape"
   width="64pt"
   height="64pt"
   viewBox="0 0 64 64"
   version="1.1"
   id="svg145"
   sodipodi:docname="telegram-mute-panel-1.svg"
   inkscape:version="1.0.2 (e86c870879, 2021-01-15)">
  <metadata
     id="metadata151">
    <rdf:RDF>
      <cc:Work
         rdf:about="">
        <dc:format>image/svg+xml</dc:format>
        <dc:type
           rdf:resource="http://purl.org/dc/dcmitype/StillImage" />
        <dc:title></dc:title>
      </cc:Work>
    </rdf:RDF>
  </metadata>
  <defs
     id="defs149" />
  <sodipodi:namedview
     pagecolor="#ffffff"
     bordercolor="#666666"
     borderopacity="1"
     objecttolerance="10"
     gridtolerance="10"
     guidetolerance="10"
     inkscape:pageopacity="0"
     inkscape:pageshadow="2"
     inkscape:window-width="1920"
     inkscape:window-height="1009"
     id="namedview147"
     showgrid="false"
     inkscape:zoom="5.6568545"
     inkscape:cx="55.67355"
     inkscape:cy="65.393703"
     inkscape:window-x="0"
     inkscape:window-y="0"
     inkscape:window-maximized="1"
     inkscape:current-layer="layer2"
     inkscape:document-rotation="0" />
  <g
     inkscape:groupmode="layer"
     id="layer1"
     inkscape:label="Layer 3"
     style="display:inline" />
  <g
     inkscape:groupmode="layer"
     id="layer5"
     inkscape:label="Layer 2"
     style="display:inline" />
  <g
     inkscape:groupmode="layer"
     id="layer4"
     inkscape:label="Layer 1"
     style="display:inline" />
  <g
     inkscape:groupmode="layer"
     id="layer2"
     inkscape:label="Layer 4"
     style="display:inline">
    <path
       style="display:inline;fill:#eff0f1;fill-opacity:1;stroke:#eff0f1;stroke-width:0.193067;stroke-linecap:square;stroke-linejoin:miter;stroke-miterlimit:4;stroke-dasharray:none;stroke-opacity:1;paint-order:fill markers stroke"
       d="M 36.084761,47.459753 C 30.05974,43.423927 25.081221,40.073433 25.021383,40.014215 24.918451,39.912344 24.47777,38.352609 24.47777,38.063514 c 0,-0.07434 2.503771,-2.554524 5.51332,-5.56432 l 5.471906,-5.472358 -0.314743,-0.412719 c -0.289763,-0.379963 -0.328026,-0.404063 -0.482114,-0.30365 -0.09205,0.05999 -3.430085,2.146558 -7.417845,4.636825 l -7.250473,4.527758 -1.736151,0.186243 -1.736154,0.186244 -6.8788761,-3.43915 -6.8788759,-3.439149 0.00135,-1.36462 0.00135,-1.364619 29.009613,-11.674546 C 47.735362,8.1444522 60.844686,2.8328867 60.858778,2.8469787 60.88156,2.8697607 49.503762,53.422646 49.404263,53.741557 c -0.02356,0.07553 -0.487127,0.306985 -1.118487,0.558464 -0.593036,0.236214 -1.116071,0.444806 -1.162304,0.463539 -0.04623,0.01874 -5.013622,-3.26798 -11.038642,-7.303807 z m 16.272945,-18.42823 c 2.874146,-12.377017 5.240438,-22.4182082 5.228845,-22.4298009 -0.01159,-0.011594 -6.397081,2.564974 -14.189974,5.7257049 -7.792893,3.16073 -19.453766,7.782326 -25.883469,10.386256 -6.429703,2.603929 -11.7170935,4.756935 -11.7497566,4.784455 -0.06461,0.05444 12.0191986,5.978756 12.1948536,5.978756 0.05898,0 6.308889,-3.401113 13.888683,-7.558029 7.579795,-4.156917 14.094115,-7.77842 14.109134,-7.762351 0.01502,0.01606 -4.299678,4.790223 -9.22108,10.323799 -4.921404,5.533578 -8.949004,10.09771 -8.950226,10.142516 -0.0019,0.07203 19.193728,12.912215 19.303541,12.912318 0.02406,2.2e-5 2.395304,-10.126608 5.269449,-22.503624 z"
       id="path835"
       sodipodi:nodetypes="cssscssscccccccsssssccssssssssscss" />
    <path
       style="display:inline;fill:none;stroke:#eff0f1;stroke-width:0.965336px;stroke-linecap:butt;stroke-linejoin:miter;stroke-opacity:1"
       d="M 16.438297,36.382649 2.2347805,29.283404 2.2353205,25.907022 61.575247,2.0190812 49.827875,54.241372 46.967061,55.372627 24.473523,40.295226 23.904571,37.830653 35.0713,26.663924 20.19406,35.960314 Z"
       id="path157"
       sodipodi:nodetypes="ccccccccccc" />
    <path
       style="display:inline;fill:none;stroke:#eff0f1;stroke-width:0.965336px;stroke-linecap:butt;stroke-linejoin:miter;stroke-opacity:1"
       d="M 17.951663,32.953694 6.9150079,27.568691 56.874979,7.3086807 46.78606,50.752084 28.479864,38.549628 48.191902,16.367625 Z"
       id="path154"
       sodipodi:nodetypes="ccccccc" />
    <circle
       style="display:inline;fill:#eff0f1;stroke-width:0.20867;stroke-linecap:square;paint-order:fill markers stroke;fill-opacity:1"
       id="path842"
       cx="46.7393"
       cy="50.705322"
       r="12.066705" />
  </g>
</svg>
